# xmcd
#
# Track frame offsets:
#	182
#	18957
#	39122
#	61475
#	75120
#	90630
#	101690
#	115212
#	138692
#	156477
#	179330
#	197407
#	215345
#	235275
#	256602
#	272685
#	289610
#	302610
#	321802
#	334600
#
# Disc length: 4689 seconds
#
# Revision: 0
# Processed by: cddbd v1.5.1PL0 Copyright (c) Steve Scherf et al.
# Submitted via: dBpowerAMP V4.0
#
DISCID=08124f14
DTITLE=Various Artist - Real Australian Blues Volume 4
DYEAR=1900
DGENRE=Blues
TTITLE0=Noon and Night - Wild Turkey
TTITLE1=A stand By Your Man, Girl - Bo Jenkins
TTITLE2=Gravel Road Blues - Paramount Trio
TTITLE3=The Blues - Al Smith
TTITLE4=Perpetual Train - Redliners
TTITLE5=Blue Dog (Matie) - Tailgaters
TTITLE6=Tell Me - Jan Cooper
TTITLE7=I Can't Wait - Kevin Borich
TTITLE8=Monkey Skulls and Thunderstones - Steve Tallis
TTITLE9=Love Gone Wrong - Snake Oil
TTITLE10=I'm Goin' Home - Peter Gelling
TTITLE11=Cross My Heart - Blind Freddy
TTITLE12=Lord Give Me Strength - Snake Hipps
TTITLE13=All Night Long - Wards Express
TTITLE14=Times Are Rolling - Blues Before Sunrise
TTITLE15=Angry and Confused - Jenny Marie Lang
TTITLE16=Wind Is Blowin' - Collards Green and Gravy
TTITLE17=Alligator River - Oozin' Blues
TTITLE18=Let's Have a Party - Larrie Cook
TTITLE19=Hungry Man - Blind Henry
EXTD=
EXTT0=
EXTT1=
EXTT2=
EXTT3=
EXTT4=
EXTT5=
EXTT6=
EXTT7=
EXTT8=
EXTT9=
EXTT10=
EXTT11=
EXTT12=
EXTT13=
EXTT14=
EXTT15=
EXTT16=
EXTT17=
EXTT18=
EXTT19=
PLAYORDER=
